
<svg version="1.1" id="Layer_1" xmlns="http://www.w3.org/2000/svg" xmlns:xlink="http://www.w3.org/1999/xlink" x="0px" y="0px"
     width="100%" viewBox="0 0 624 512" enable-background="new 0 0 624 512" xml:space="preserve">
<path fill="#000000" opacity="1.000000" stroke="none"
      d="
M1.000000,16.468658
	C2.674998,20.004128 1.990514,24.227226 1.996082,28.346832
	C2.080767,91.010460 2.128340,153.674194 2.113275,216.337875
	C2.093884,297.000854 2.016077,377.663818 1.931269,458.326752
	C1.928484,460.975769 1.575045,463.624359 1.192532,466.636597
	C1.000000,316.979095 1.000000,166.958206 1.000000,16.468658
z"/>
    <path fill="#000000" opacity="1.000000" stroke="none"
          d="
M1.000000,478.468658
	C2.796009,483.817657 1.720317,489.803497 1.975487,495.707153
	C2.210762,501.150482 2.050290,506.610931 2.032067,512.531921
	C-0.209840,512.944824 1.078057,511.279083 1.070804,510.542419
	C0.967092,500.008179 1.000000,489.472595 1.000000,478.468658
z"/>
    <path fill="#000000" opacity="1.000000" stroke="none"
          d="
M425.694763,371.447815
	C427.624695,371.578003 429.165344,371.411591 430.615570,371.699890
	C449.520844,375.458405 459.525238,351.129120 451.640961,336.997772
	C446.858032,328.425171 432.608887,321.696289 424.592590,326.925476
	C406.708649,338.591675 386.930237,336.349365 367.496124,337.050079
	C358.027679,337.391479 348.518585,336.571594 339.026825,336.316437
	C334.983124,336.207794 331.699402,334.612305 328.798309,331.810974
	C314.053772,317.573517 298.804230,303.826355 284.608398,289.064270
	C274.298309,278.342896 262.878845,272.492218 247.873016,274.259064
	C244.421448,274.665466 240.875137,274.190918 237.382324,274.345428
	C234.068726,274.492035 232.540298,273.391602 232.618073,269.800140
	C232.985657,252.828583 230.315338,256.095886 245.979599,255.844528
	C260.141937,255.617294 274.311066,255.709351 288.475922,255.822632
	C291.690521,255.848328 294.118774,254.975494 296.468109,252.686935
	C314.014038,235.595078 331.824036,218.771698 349.220825,201.530777
	C354.901123,195.901382 361.477448,193.825439 369.001007,193.740250
	C394.822906,193.447922 420.646118,193.277649 446.468353,193.010956
	C449.116760,192.983597 451.316925,193.651382 453.233307,195.560715
	C459.412079,201.716721 467.627075,203.640167 475.569702,206.095856
	C476.171600,206.281952 476.891113,206.330048 477.504578,206.199997
	C487.104675,204.165176 496.784119,192.562149 497.696930,182.796417
	C498.588654,173.256317 494.978851,166.311966 486.962585,161.404678
	C478.282410,156.090958 469.218292,156.917130 461.485382,162.246780
	C454.366852,167.153000 447.058044,168.280991 438.952789,168.359360
	C413.127869,168.609085 387.304291,169.333145 361.481415,169.280243
	C352.213806,169.261261 345.206848,172.773224 338.862091,178.930603
	C322.360657,194.944672 305.712341,210.807602 289.251587,226.863068
	C286.659180,229.391678 284.045502,230.398834 280.431854,230.391342
	C234.934769,230.296967 189.437363,230.349609 143.940048,230.365753
	C130.448517,230.370544 116.969345,230.718857 103.536278,232.064041
	C98.248245,232.593597 93.518364,234.650543 89.565445,238.174408
	C76.853363,249.506592 52.558815,243.216034 49.469048,223.029343
	C48.079277,213.949417 51.084129,206.311081 57.681969,200.109634
	C64.804909,193.414627 73.043663,191.767776 82.128052,195.534897
	C85.346527,196.869537 88.716812,198.238190 91.404846,200.365723
	C96.464577,204.370392 101.991455,205.126938 108.214478,205.081284
	C146.877396,204.797623 185.542511,204.700455 224.206314,204.788193
	C229.231735,204.799606 230.772171,203.367386 230.784973,198.295364
	C230.826965,181.641159 231.991730,164.975128 231.630173,148.337418
	C230.652100,103.330475 270.358063,66.773376 302.261108,59.275425
	C326.745209,53.521084 350.002167,57.048576 371.993195,68.370270
	C402.363281,84.005783 431.576385,101.737244 461.076721,118.940727
	C492.019653,136.985519 523.169617,154.677002 554.030090,172.860580
	C564.630432,179.106491 575.014771,185.748932 585.016235,193.009247
	C603.945435,206.750381 614.192566,225.709137 618.016785,248.111328
	C622.328735,273.370636 617.707642,297.214508 603.025574,318.571381
	C595.624939,329.336548 584.937622,336.661407 574.379395,343.959991
	C545.693481,363.789764 514.789795,379.949951 484.807495,397.621948
	C452.232361,416.822205 419.750793,436.209869 386.460632,454.173676
	C374.443542,460.658295 362.584167,467.731995 349.260284,471.130432
	C321.019714,478.333496 294.912933,473.506134 271.128235,456.274841
	C252.198822,442.561066 238.759476,425.277100 234.094437,401.935425
	C232.357742,393.245758 232.288040,384.386810 231.879837,375.596985
	C231.184525,360.624329 230.897034,345.627136 230.768341,330.637390
	C230.732147,326.420471 229.299789,325.238861 225.245041,325.274506
	C206.747620,325.437164 188.247467,325.404510 169.749405,325.278748
	C166.195984,325.254578 163.318771,326.551331 160.420029,328.269897
	C156.555756,330.560944 152.751099,333.019287 148.682724,334.887085
	C134.826859,341.248260 123.833954,334.828857 116.851761,324.983276
	C108.088829,312.626709 117.825920,291.358521 132.678741,288.628113
	C140.530014,287.184784 147.614334,288.656158 154.062515,293.049683
	C160.219345,297.244659 166.764908,298.862793 174.271133,298.765503
	C201.091232,298.417847 227.887558,299.679321 254.684433,300.713318
	C258.967682,300.878601 262.297424,302.439636 265.334473,305.364990
	C279.496155,319.005859 293.749023,332.552063 307.968048,346.133362
	C308.811615,346.939117 309.654846,347.745667 310.480927,348.569214
	C318.910309,356.973114 328.151672,361.637177 340.986633,361.009094
	C361.745697,359.993195 382.625610,360.232880 403.433136,361.608948
	C406.206024,361.792328 408.861145,362.204407 410.751862,364.247894
	C414.708649,368.524414 419.738007,370.398132 425.694763,371.447815
M84.962143,219.332092
	C84.476883,211.385925 78.181770,205.392838 72.062141,207.050964
	C66.248878,208.626083 62.687004,213.625595 63.339371,219.294434
	C63.974785,224.815979 69.567291,230.463470 74.498123,230.562897
	C79.164558,230.656982 83.585289,226.229507 84.962143,219.332092
M139.280045,323.620087
	C146.343185,321.666840 149.495071,316.130188 147.698547,308.831940
	C146.702682,304.786285 139.885666,301.657928 134.415756,302.736359
	C129.421295,303.721039 126.515045,308.041840 127.495445,313.024963
	C128.620316,318.742371 132.485580,322.461670 139.280045,323.620087
z"/>
    <path fill="#000000" opacity="1.000000" stroke="none"
          d="
M471.748871,192.884476
	C465.385834,190.011719 462.962555,186.394592 463.451599,180.946503
	C463.908813,175.853256 468.132263,171.376358 473.718781,170.063278
	C478.156403,169.020264 484.455963,175.326630 485.269501,181.626480
	C486.292847,189.551056 481.327515,193.859283 471.748871,192.884476
z"/>
    <path fill="#000000" opacity="1.000000" stroke="none"
          d="
M441.949097,353.299622
	C438.077698,359.145752 429.547516,361.325684 423.759796,358.305328
	C419.959045,356.321930 418.479675,351.777740 419.800873,345.507782
	C420.642151,341.515472 423.160828,339.180054 427.305511,338.716339
	C438.059357,337.513123 442.856567,342.112335 441.949097,353.299622
z"/>
</svg>